<svg width="375" height="319" viewBox="0 0 375 319" fill="none" xmlns="http://www.w3.org/2000/svg">
<g filter="url(#filter0_d_0_1)">
<path d="M483.608 228.757C234.072 336.695 85.9491 317.369 43.0797 294.215L-183.527 156.617L167.476 -155.836C376.827 -72.6126 733.145 120.819 483.608 228.757Z" fill="white"/>
</g>
<path d="M145.089 83.8955C145.089 83.8955 106.295 103.659 86.9466 134.112C67.5981 164.566 69.129 203.744 92.64 232.826C116.151 261.908 161.089 258.088 198.716 276.51C236.343 294.932 277.856 291.138 295.648 252.108C313.44 213.078 286.611 198.491 282.003 153.323C277.395 108.154 236.676 42.0139 145.089 83.8955Z" fill="#576032"/>
<path opacity="0.7" d="M145.089 83.8955C145.089 83.8955 106.295 103.659 86.9466 134.112C67.5981 164.566 69.129 203.744 92.64 232.826C116.151 261.908 161.089 258.088 198.716 276.51C236.343 294.932 277.856 291.138 295.648 252.108C313.44 213.078 286.611 198.491 282.003 153.323C277.395 108.154 236.676 42.0139 145.089 83.8955Z" fill="white"/>
<path d="M248.6 90.5C244.74 88.3957 242.968 90.1518 241.581 88.3957C240.193 86.6395 245.441 82.0776 234.925 77.5157C234.925 77.5157 234.223 67.6904 219.831 67.3371C205.439 66.9838 209.304 77.1675 205.444 79.6251C201.583 82.0827 200.529 78.2222 196.668 80.6798C192.808 83.1374 194.554 88.0321 191.395 88.7489C188.236 89.4657 184.022 85.5899 180.161 88.0475C176.301 90.5051 176.301 92.6094 174.529 92.6094C172.758 92.6094 169.261 91.2065 167.156 92.6094C165.052 94.0123 162.595 95.7685 162.595 95.7685H251.411C251.411 95.7685 252.461 92.6094 248.6 90.5Z" stroke="#263238" stroke-linecap="round" stroke-linejoin="round"/>
<path d="M196.074 89.0557C195.571 89.3395 195.047 89.586 194.508 89.7929" stroke="#263238" stroke-linecap="round" stroke-linejoin="round"/>
<path d="M215.069 72.6719C214.199 73.0605 213.433 73.6518 212.837 74.3964C212.242 75.141 211.832 76.0173 211.644 76.9522C210.999 80.1676 209.499 82.3077 207.789 82.5228C206.079 82.7378 199.648 82.0927 198.573 84.453C198.287 85.1429 198.086 85.865 197.974 86.6034" stroke="#263238" stroke-linecap="round" stroke-linejoin="round"/>
<path d="M161.919 115.731C159.896 114.631 158.975 115.547 158.237 114.631C157.5 113.714 160.26 111.318 154.74 108.922C154.74 108.922 154.372 103.771 146.83 103.587C139.288 103.402 141.306 108.737 139.283 110.048C137.261 111.359 136.723 109.311 134.675 110.601C132.627 111.891 133.574 114.467 131.916 114.835C130.257 115.204 128.05 113.176 126.028 114.467C124.005 115.757 123.98 116.858 123.084 116.858C122.188 116.858 120.324 116.12 119.218 116.858C118.112 117.595 116.827 118.511 116.827 118.511H163.383C163.383 118.511 163.936 116.837 161.919 115.731Z" stroke="#263238" stroke-linecap="round" stroke-linejoin="round"/>
<path d="M134.378 114.979C134.112 115.124 133.837 115.252 133.554 115.363" stroke="#263238" stroke-linecap="round" stroke-linejoin="round"/>
<path d="M144.337 106.382C143.88 106.585 143.478 106.895 143.166 107.285C142.853 107.675 142.638 108.134 142.54 108.624C142.202 110.309 141.418 111.435 140.492 111.548C139.565 111.661 136.227 111.323 135.663 112.572C135.515 112.934 135.408 113.312 135.346 113.698" stroke="#263238" stroke-linecap="round" stroke-linejoin="round"/>
<path d="M222.125 154.244C222.125 154.244 246.255 156.635 258.477 171.59C258.477 171.59 271.4 154.264 294.609 154.617C300.278 147.776 303.888 139.466 305.017 130.653C306.146 121.84 304.749 112.888 300.988 104.838C297.227 96.7889 291.257 89.9733 283.773 85.1851C276.289 80.397 267.598 77.8333 258.714 77.7925C249.829 77.7517 241.115 80.2355 233.587 84.9548C226.059 89.674 220.027 96.4345 216.192 104.449C212.357 112.464 210.878 121.403 211.927 130.226C212.975 139.048 216.508 147.392 222.115 154.285L222.125 154.244Z" fill="#576032"/>
<path opacity="0.5" d="M222.125 154.244C222.125 154.244 246.255 156.635 258.477 171.59C258.477 171.59 271.4 154.264 294.609 154.617C300.278 147.776 303.888 139.466 305.017 130.653C306.146 121.84 304.749 112.888 300.988 104.838C297.227 96.7889 291.257 89.9733 283.773 85.1851C276.289 80.397 267.598 77.8333 258.714 77.7925C249.829 77.7517 241.115 80.2355 233.587 84.9548C226.059 89.674 220.027 96.4345 216.192 104.449C212.357 112.464 210.878 121.403 211.927 130.226C212.975 139.048 216.508 147.392 222.115 154.285L222.125 154.244Z" fill="white"/>
<path d="M257.688 81.0996L256.869 265.573H260.945L257.688 81.0996Z" fill="#263238"/>
<path d="M258.907 167.033C258.907 167.033 267.053 152.37 281.696 147.89C281.696 147.89 266.218 151.556 258.482 164.181L258.907 167.033Z" fill="#263238"/>
<path d="M258.907 125.489C258.907 125.489 267.053 110.831 281.696 106.351C281.696 106.351 266.218 110.017 258.482 122.637L258.907 125.489Z" fill="#263238"/>
<path d="M258.907 146.262C258.907 146.262 267.053 131.598 281.696 127.118C281.696 127.118 266.218 130.784 258.482 143.41L258.907 146.262Z" fill="#263238"/>
<path d="M257.699 136.078C257.699 136.078 249.839 121.419 235.683 116.939C235.683 116.939 250.618 120.605 258.083 133.231L257.699 136.078Z" fill="#263238"/>
<path d="M257.699 156.44C257.699 156.44 249.839 141.782 235.683 137.302C235.683 137.302 250.618 140.968 258.083 153.594L257.699 156.44Z" fill="#263238"/>
<path d="M146.61 173.366C146.61 173.366 166.578 175.348 176.721 187.733C176.721 187.733 187.421 173.397 206.642 173.679C211.339 168.013 214.33 161.129 215.267 153.83C216.203 146.53 215.047 139.114 211.932 132.446C208.817 125.778 203.872 120.132 197.673 116.166C191.474 112.199 184.275 110.075 176.916 110.041C169.556 110.008 162.339 112.065 156.103 115.974C149.868 119.884 144.871 125.484 141.695 132.123C138.519 138.762 137.294 146.166 138.163 153.475C139.033 160.783 141.96 167.693 146.605 173.402L146.61 173.366Z" fill="#576032"/>
<path opacity="0.3" d="M146.61 173.366C146.61 173.366 166.578 175.348 176.721 187.733C176.721 187.733 187.421 173.397 206.642 173.679C211.339 168.013 214.33 161.129 215.267 153.83C216.203 146.53 215.047 139.114 211.932 132.446C208.817 125.778 203.872 120.132 197.673 116.166C191.474 112.199 184.275 110.075 176.916 110.041C169.556 110.008 162.339 112.065 156.103 115.974C149.868 119.884 144.871 125.484 141.695 132.123C138.519 138.762 137.294 146.166 138.163 153.475C139.033 160.783 141.96 167.693 146.605 173.402L146.61 173.366Z" fill="white"/>
<path d="M176.06 112.787L175.389 265.573H178.758L176.06 112.787Z" fill="#263238"/>
<path d="M177.074 183.96C177.074 183.96 183.817 171.815 195.962 168.088C195.962 168.088 183.162 171.124 176.736 181.579L177.074 183.96Z" fill="#263238"/>
<path d="M177.074 149.554C177.074 149.554 183.817 137.409 195.962 133.682C195.962 133.682 183.162 136.718 176.736 147.178L177.074 149.554Z" fill="#263238"/>
<path d="M177.074 166.757C177.074 166.757 183.817 154.612 195.962 150.885C195.962 150.885 183.162 153.921 176.736 164.381L177.074 166.757Z" fill="#263238"/>
<path d="M176.076 158.324C176.076 158.324 169.563 146.18 157.848 142.452C157.848 142.452 170.213 145.488 176.398 155.948L176.076 158.324Z" fill="#263238"/>
<path d="M176.076 175.189C176.076 175.189 169.563 163.045 157.848 159.317C157.848 159.317 170.213 162.354 176.398 172.814L176.076 175.189Z" fill="#263238"/>
<path d="M193.699 265.399C193.627 263.796 193.837 260.755 195.562 256.183C198.266 249.015 203.002 263.351 203.002 263.351C203.002 263.351 203.002 261.646 208.075 256.183C213.149 250.72 217.542 260.279 217.542 260.279C217.542 260.279 215.177 237.413 220.927 239.118C226.676 240.823 225.995 260.279 225.995 260.279C225.995 260.279 230.056 245.943 235.467 245.943C240.879 245.943 242.231 256.183 242.231 256.183C242.231 256.183 243.583 238.094 248.995 237.751C254.406 237.408 260.489 252.773 260.489 252.773C260.489 252.773 258.799 232.293 264.211 231.269C269.623 230.245 271.651 238.775 271.651 238.775C271.651 238.775 276.381 210.446 285.515 213.861C294.65 217.276 286.867 248.677 286.867 248.677C286.867 248.677 295.996 226.83 303.435 231.95C310.199 236.604 301.592 261.001 299.974 265.399H193.699Z" fill="#576032"/>
<path d="M302.857 265.353C302.857 265.353 306.82 253.111 304.787 251.063C302.755 249.015 293.984 257.893 293.984 257.893C293.984 257.893 300.41 236.046 290.262 233.317C280.114 230.588 278.429 254.478 278.429 254.478C278.429 254.478 270.99 243.557 269.295 247.653C268.274 250.149 267.702 252.806 267.606 255.502C267.606 255.502 263.889 225.806 255.43 227.173C246.972 228.54 254.755 257.893 254.755 257.893C254.755 257.893 250.024 247.653 244.612 248.677C239.2 249.701 237.152 256.183 237.152 256.183C237.152 256.183 234.787 250.382 233.092 250.382C231.397 250.382 229.375 260.622 229.375 260.622C229.375 260.622 227.327 244.919 223.625 245.605C219.923 246.291 212.125 259.598 212.125 259.598C212.125 259.598 213.482 252.087 209.422 251.749C205.362 251.411 202.996 263.351 202.996 263.351C202.996 263.351 197.585 252.087 194.205 254.135C190.826 256.183 192.439 265.696 192.439 265.696" stroke="#263238" stroke-linecap="round" stroke-linejoin="round"/>
<path d="M284.599 265.183L287.543 250.725" stroke="#263238" stroke-linecap="round" stroke-linejoin="round"/>
<path d="M263.535 265.399L261.841 255.845" stroke="#263238" stroke-linecap="round" stroke-linejoin="round"/>
<path d="M220.768 265.353L222.954 257.55" stroke="#263238" stroke-linecap="round" stroke-linejoin="round"/>
<path d="M246.962 265.742L243.245 258.917" stroke="#263238" stroke-linecap="round" stroke-linejoin="round"/>
<path d="M285.178 259.598L282.469 254.135" stroke="#263238" stroke-linecap="round" stroke-linejoin="round"/>
<path d="M263.535 262.327L265.901 257.55" stroke="#263238" stroke-linecap="round" stroke-linejoin="round"/>
<path d="M245.272 261.989L246.962 258.917" stroke="#263238" stroke-linecap="round" stroke-linejoin="round"/>
<path d="M221.449 262.454L220.251 258.23" stroke="#263238" stroke-linecap="round" stroke-linejoin="round"/>
<path d="M178.272 265.476C178.328 264.232 178.17 261.892 176.905 258.308C174.924 252.742 171.447 263.873 171.447 263.873C171.447 263.873 171.447 262.547 167.73 258.308C164.013 254.069 160.787 261.487 160.787 261.487C160.787 261.487 162.523 243.736 158.304 245.062C154.085 246.389 154.587 261.487 154.587 261.487C154.587 261.487 151.648 250.377 147.654 250.377C143.661 250.377 142.693 258.323 142.693 258.323C142.693 258.323 141.705 244.279 137.737 244.018C133.769 243.757 129.304 255.671 129.304 255.671C129.304 255.671 130.543 239.799 126.575 238.98C122.607 238.161 121.117 244.812 121.117 244.812C121.117 244.812 117.646 222.821 110.949 225.468C104.252 228.115 109.956 252.497 109.956 252.497C109.956 252.497 103.259 235.539 97.8061 239.512C92.8448 243.127 99.1578 262.04 100.366 265.476H178.272Z" fill="#576032"/>
<path d="M98.231 265.44C98.231 265.44 95.328 255.937 96.8128 254.35C98.2976 252.763 104.749 259.649 104.749 259.649C104.749 259.649 100.038 242.692 107.478 240.572C114.917 238.453 116.182 256.997 116.182 256.997C116.182 256.997 121.64 248.519 122.879 251.698C123.629 253.646 124.048 255.705 124.118 257.791C124.118 257.791 126.847 234.751 133.047 235.8C139.247 236.85 133.559 259.649 133.559 259.649C133.559 259.649 137.03 251.698 140.998 252.481C144.966 253.265 146.456 258.308 146.456 258.308C146.456 258.308 148.192 253.802 149.431 253.802C150.67 253.802 152.16 261.754 152.16 261.754C152.16 261.754 153.65 249.563 156.379 250.095C159.108 250.628 164.812 260.955 164.812 260.955C164.812 260.955 163.818 255.128 166.793 254.862C169.768 254.596 171.503 263.873 171.503 263.873C171.503 263.873 175.471 255.128 177.955 256.705C180.438 258.282 179.214 265.696 179.214 265.696" stroke="#263238" stroke-linecap="round" stroke-linejoin="round"/>
<path d="M111.62 265.307L109.459 254.084" stroke="#263238" stroke-linecap="round" stroke-linejoin="round"/>
<path d="M127.072 265.476L128.311 258.057" stroke="#263238" stroke-linecap="round" stroke-linejoin="round"/>
<path d="M158.437 265.44L156.829 259.383" stroke="#263238" stroke-linecap="round" stroke-linejoin="round"/>
<path d="M139.222 265.742L141.951 260.442" stroke="#263238" stroke-linecap="round" stroke-linejoin="round"/>
<path d="M111.2 260.97L113.181 256.73" stroke="#263238" stroke-linecap="round" stroke-linejoin="round"/>
<path d="M127.072 263.09L125.336 259.383" stroke="#263238" stroke-linecap="round" stroke-linejoin="round"/>
<path d="M140.461 262.828L139.222 260.442" stroke="#263238" stroke-linecap="round" stroke-linejoin="round"/>
<path d="M157.935 263.187L158.816 259.91" stroke="#263238" stroke-linecap="round" stroke-linejoin="round"/>
<path d="M68.704 265.573H312.928" stroke="#263238" stroke-linecap="round" stroke-linejoin="round"/>
<path d="M255.215 222.984L252.717 226.737L232.186 235.661C232.186 235.661 229.329 236.199 229.329 237.09C229.329 237.981 228.791 240.485 229.329 240.843C229.866 241.201 233.425 239.947 233.425 239.947C233.425 239.947 232.355 241.196 233.425 241.555C234.495 241.913 235.565 240.305 235.565 240.305C236.613 239.645 237.627 238.931 238.601 238.165C239.104 237.504 239.524 236.784 239.85 236.02L258.794 231.202L262.721 225.309C262.721 225.309 254.683 224.413 255.215 222.984Z" fill="#B5B5B5" stroke="#263238" stroke-linecap="round" stroke-linejoin="round"/>
<path d="M256.644 214.567L254.319 222.196L260.397 225.816L262.849 219.867L256.644 214.567Z" fill="white" stroke="#263238" stroke-linecap="round" stroke-linejoin="round"/>
<path d="M254.56 219.738L261.933 224.136L260.637 226.461L253.659 222.841C253.707 221.75 254.016 220.686 254.56 219.738Z" fill="white" stroke="#263238" stroke-linecap="round" stroke-linejoin="round"/>
<path d="M239.968 260.064C239.968 260.064 234.797 262.649 233.373 263.812C231.95 264.974 231.694 264.836 232.078 265.752H248.631L248.242 259.803L239.968 260.064Z" fill="white" stroke="#263238" stroke-linecap="round" stroke-linejoin="round"/>
<path d="M248.57 264.861H232.078C231.853 265.102 231.878 265.297 232.078 265.768H248.631L248.57 264.861Z" fill="white" stroke="#263238" stroke-linecap="round" stroke-linejoin="round"/>
<path d="M262.204 229.308C262.204 229.308 255.871 226.722 250.7 226.205C245.528 225.688 234.797 225.944 234.28 228.253C233.763 230.562 241.908 255.901 241.908 255.901C241.908 255.901 240.485 256.807 240.372 257.437C240.26 258.067 239.988 259.997 239.988 259.997L248.262 261.287C248.262 261.287 248.518 258.702 248.518 256.249C248.518 253.797 245.677 238.662 245.677 238.662L262.353 243.966L256.147 257.15C256.147 257.15 254.212 261.031 256.408 262.972C258.605 264.912 262.225 264.508 262.225 264.508L291.706 264.897L291.194 260.11C291.194 260.11 286.929 259.465 286.15 259.465C285.372 259.465 270.504 255.717 270.504 255.717C270.504 255.717 282.403 243.301 283.693 241.232C284.461 240.087 284.983 238.795 285.228 237.439C285.473 236.082 285.435 234.689 285.116 233.347C284.338 230.245 283.821 229.595 283.821 229.595C283.821 229.595 274.748 233.952 270.094 232.928C267.243 232.276 264.558 231.043 262.204 229.308Z" fill="#263238" stroke="#263238" stroke-linecap="round" stroke-linejoin="round"/>
<path d="M241.13 189.612C241.13 189.612 242.037 192.587 242.037 192.976C242.037 193.365 241.386 195.301 241.909 195.946C242.431 196.591 243.957 196.724 243.957 196.724C243.957 196.724 246.281 199.438 247.315 200.472C248.349 201.506 249.512 201.895 250.807 201.25C252.102 200.605 253.265 198.921 253.265 198.921L255.722 201.378L261.411 194.784L259.363 192.198C259.363 192.198 259.875 189.223 257.939 185.347C256.004 181.472 249.276 180.432 244.878 181.21C240.48 181.989 239.451 184.569 239.451 185.086C239.451 185.603 241.13 189.612 241.13 189.612Z" fill="white" stroke="#263238" stroke-linecap="round" stroke-linejoin="round"/>
<path d="M243.46 177.847C243.46 177.847 240.741 175.799 238.934 176.685C237.126 177.57 237.91 178.364 237.638 179.915C237.367 181.467 232.856 181.595 232.856 184.18C232.856 186.766 236.087 187.672 236.732 187.8C237.377 187.928 236.865 190.775 238.78 190.775C240.695 190.775 241.11 189.613 241.11 189.613C241.11 189.613 239.686 185.476 241.238 184.83C242.789 184.185 246.281 182.89 245.764 185.342C245.247 187.795 247.059 188.573 248.093 188.317C249.128 188.061 250.418 188.184 250.653 188.701C250.889 189.218 252.189 190.125 252.189 188.834C252.189 187.544 252.835 186.377 253.997 186.377C255.159 186.377 256.045 188.317 255.937 189.869C255.85 190.803 255.494 191.692 254.913 192.429L259.311 192.167C259.311 192.167 260.474 186.351 259.439 182.214C258.405 178.077 253.536 175.778 250.566 175.389C247.597 175 243.844 176.685 243.46 177.847Z" fill="#263238" stroke="#263238" stroke-linecap="round" stroke-linejoin="round"/>
<path d="M244.571 191.922C244.893 192.434 244.97 192.946 244.75 193.074C244.53 193.202 244.079 192.946 243.762 192.454C243.445 191.963 243.357 191.43 243.583 191.302C243.808 191.174 244.248 191.456 244.571 191.922Z" fill="#263238"/>
<path d="M246.25 197.728C246.868 197.605 247.428 197.281 247.843 196.807C248.258 196.333 248.504 195.735 248.544 195.106" stroke="#263238" stroke-linecap="round" stroke-linejoin="round"/>
<path d="M242.313 190.841C242.313 190.841 242.528 189.638 243.951 190.186" stroke="#263238" stroke-linecap="round" stroke-linejoin="round"/>
<path d="M255.999 203.575C255.999 203.575 254.975 212.11 256.127 214.696C257.279 217.281 261.431 227.624 261.431 227.624C261.431 227.624 260.525 233.952 263.11 235.642C265.696 237.331 275.521 237.582 279.274 235.253C283.027 232.923 284.573 231.116 284.573 229.436C284.573 227.757 282.116 220.384 278.24 213.016C275.402 207.621 271.484 202.866 266.73 199.049C264.017 196.853 262.982 195.818 262.465 195.818C261.948 195.818 255.743 201.123 255.999 203.575Z" fill="white" stroke="#263238" stroke-linecap="round" stroke-linejoin="round"/>
<path d="M261.431 194.139L254.447 202.023L255.871 206.294L263.756 196.079L261.431 194.139Z" fill="white" stroke="#263238" stroke-linecap="round" stroke-linejoin="round"/>
<path d="M261.559 222.97C261.559 222.97 247.336 231.116 245.528 231.766C243.721 232.416 237.9 232.411 236.215 232.278C236.008 232.241 235.796 232.25 235.594 232.305C235.391 232.359 235.203 232.457 235.042 232.593C234.882 232.728 234.754 232.897 234.666 233.088C234.578 233.279 234.534 233.486 234.536 233.696L234.28 238.611C234.28 238.611 235.698 239 236.328 238.611C236.957 238.222 237.618 236.799 237.618 236.799C237.618 236.799 239.948 237.06 240.721 236.543C241.228 236.198 241.704 235.809 242.144 235.381C244.533 235.182 246.908 234.84 249.256 234.357C251.841 233.706 263.735 229.831 265.548 229.441C267.36 229.052 268.005 228.018 268.133 227.393C268.261 226.769 261.559 222.97 261.559 222.97Z" fill="white" stroke="#263238" stroke-linecap="round" stroke-linejoin="round"/>
<path d="M245.344 231.816C243.368 232.405 237.848 232.405 236.215 232.282C236.008 232.245 235.796 232.255 235.594 232.309C235.391 232.363 235.203 232.462 235.042 232.597C234.882 232.733 234.754 232.902 234.666 233.092C234.578 233.283 234.534 233.491 234.536 233.701L234.28 238.616C234.28 238.616 235.698 239.005 236.328 238.616C236.957 238.227 237.618 236.803 237.618 236.803C237.618 236.803 239.948 237.064 240.721 236.547C241.228 236.202 241.704 235.813 242.144 235.385C242.144 235.385 244.315 235.196 246.511 234.873L245.344 231.816Z" fill="#576032" stroke="#263238" stroke-linecap="round" stroke-linejoin="round"/>
<path d="M262.593 203.708C262.593 203.708 260.397 206.16 260.653 207.973C260.909 209.785 261.559 222.969 261.559 222.969L268.927 225.944L270.975 215.474C270.975 215.474 272.659 212.755 272.398 210.169" fill="white"/>
<path d="M262.593 203.708C262.593 203.708 260.397 206.16 260.653 207.973C260.909 209.785 261.559 222.969 261.559 222.969L268.927 225.944L270.975 215.474C270.975 215.474 272.659 212.755 272.398 210.169" stroke="#263238" stroke-linecap="round" stroke-linejoin="round"/>
<path d="M260.914 223.619L268.41 228.14C268.41 228.14 269.434 228.14 269.577 226.461C269.72 224.781 270.478 224.52 269.833 223.619C269.188 222.718 262.332 219.866 261.687 219.866C261.042 219.866 260.397 221.418 260.914 223.619Z" fill="white" stroke="#263238" stroke-linecap="round" stroke-linejoin="round"/>
<path d="M291.168 260.207C291.168 260.207 295.044 256.848 295.694 256.976C296.344 257.104 301.51 262.019 301.51 262.019C301.51 262.019 306.293 264.605 306.293 264.994C306.293 265.383 305.519 265.506 305.519 265.506L291.695 264.994L291.168 260.207Z" fill="white" stroke="#263238" stroke-linecap="round" stroke-linejoin="round"/>
<path d="M306.272 264.994C306.272 264.605 301.49 262.019 301.49 262.019C301.49 262.019 296.319 257.104 295.674 256.976C295.443 256.93 294.798 257.33 294.071 257.862L300.328 262.275L304.884 265.486L305.499 265.511C305.499 265.511 306.272 265.378 306.272 264.994Z" fill="white" stroke="#263238" stroke-linecap="round" stroke-linejoin="round"/>
<path d="M262.332 244.049L261.042 238.616" stroke="#999999" stroke-linecap="round" stroke-linejoin="round"/>
<path d="M217.348 222.524C215.812 221.653 213.554 220.476 213.554 220.476C213.554 220.476 210.513 212.796 208.127 209.212C205.741 205.628 204.328 205.193 201.722 204.978C199.116 204.763 191.308 206.821 190.97 207.364C190.97 207.364 183.699 210.727 181.856 213.118C180.013 215.509 180.658 234.059 180.658 234.059C180.658 234.059 172.855 239.343 170.797 245.216C169.486 248.938 171.012 255.087 178.067 256.935C180.421 257.565 182.892 257.62 185.271 257.094C187.104 258.64 189.134 259.937 191.308 260.949C198.578 264.421 203.35 265.071 207.799 265.291C212.248 265.511 216.805 264.098 217.676 263.243C218.546 262.388 220.282 259.009 215.832 254.13C211.997 249.916 200.426 245.226 197.303 244.012C197.614 242.19 197.785 240.347 197.815 238.498C197.815 238.498 204.543 230.818 204.983 229.057C205.423 227.296 206.519 220.158 206.519 220.158C206.519 220.158 210.211 226.891 211.296 227.864C212.381 228.837 218.674 228.084 219.324 228.084C219.974 228.084 220.302 225.263 220.302 225.263C219.477 224.192 218.479 223.266 217.348 222.524Z" fill="white" stroke="#263238" stroke-linecap="round" stroke-linejoin="round"/>
<path d="M215.832 254.104C211.997 249.89 200.426 245.2 197.303 243.987C197.4 243.419 197.482 242.866 197.544 242.343C194.624 242.988 191.593 242.927 188.701 242.164C180.453 239.993 178.717 235.544 178.717 235.544H178.656C176.193 237.541 172.184 241.243 170.797 245.2C169.486 248.923 171.012 255.072 178.067 256.92C180.421 257.55 182.892 257.604 185.271 257.079C187.104 258.625 189.134 259.921 191.308 260.934C198.578 264.405 203.35 265.056 207.799 265.276C212.248 265.496 216.805 264.083 217.676 263.228C218.546 262.373 220.282 258.983 215.832 254.104Z" fill="#696969" stroke="#263238" stroke-linecap="round" stroke-linejoin="round"/>
<path d="M175.133 245.963C175.133 245.963 179.04 241.186 184.145 243.142C201.978 249.977 206.499 257.575 207.697 260.612C208.895 263.648 208.454 265.281 207.482 265.931C206.509 266.582 196.305 264.196 191.42 262.46C186.536 260.724 180.023 261.59 174.488 256.925C168.954 252.261 169.824 247.709 171.56 243.792" fill="#696969"/>
<path d="M175.133 245.963C175.133 245.963 179.04 241.186 184.145 243.142C201.978 249.977 206.499 257.575 207.697 260.612C208.895 263.648 208.454 265.281 207.482 265.931C206.509 266.582 196.305 264.196 191.42 262.46C186.536 260.724 180.023 261.59 174.488 256.925C168.954 252.261 169.824 247.709 171.56 243.792" stroke="#263238" stroke-linecap="round" stroke-linejoin="round"/>
<path d="M220.282 225.247C219.461 224.187 218.469 223.27 217.348 222.534C215.812 221.663 213.554 220.486 213.554 220.486C213.554 220.486 212.678 218.274 211.506 215.668C210.19 216.764 208.035 218.868 207.205 221.423C208.332 223.42 210.492 227.157 211.301 227.864C212.381 228.842 218.679 228.084 219.329 228.084C219.98 228.084 220.282 225.247 220.282 225.247Z" fill="white" stroke="#263238" stroke-linecap="round" stroke-linejoin="round"/>
<path d="M206.499 220.133L206.391 214.275" stroke="#263238" stroke-linecap="round" stroke-linejoin="round"/>
<path d="M223.804 234.868C222.585 235.305 221.415 235.868 220.312 236.548C219.288 237.321 219.15 237.971 219.15 239.133C219.15 240.295 216.82 241.847 217.988 241.847C219.155 241.847 220.036 241.458 221.091 239.522C222.145 237.587 223.415 237.013 223.415 237.013C223.495 237.949 223.667 238.875 223.927 239.778C224.289 240.549 224.336 241.43 224.06 242.236C223.799 243.26 225.084 243.014 225.478 240.188C225.687 238.384 225.421 236.557 224.705 234.889L223.804 234.868Z" fill="white" stroke="#263238" stroke-linecap="round" stroke-linejoin="round"/>
<path d="M223.548 231.756C223.548 231.756 223.932 233.937 223.804 234.433C223.676 234.93 221.864 236.318 221.219 237.505C220.961 237.989 220.805 238.52 220.761 239.066C220.717 239.612 220.786 240.161 220.963 240.68C221.219 241.473 221.987 244.049 222.381 243.358C222.775 242.666 222.893 241.868 222.893 240.383C222.893 238.898 222.637 237.603 223.405 237.009L224.183 236.415C224.558 237.281 224.862 238.177 225.089 239.093C225.601 240.977 224.7 242.564 224.956 242.861C225.212 243.158 226.252 242.958 226.38 242.165C226.508 241.371 227.025 240.48 227.025 238.893C227.017 237.925 226.727 236.98 226.19 236.174C225.948 235.506 225.753 234.822 225.606 234.126C225.376 232.928 224.582 230.665 223.548 231.756Z" fill="white" stroke="#263238" stroke-linecap="round" stroke-linejoin="round"/>
<path d="M227.552 228.274C228.114 229.223 228.627 230.201 229.088 231.203C229.411 232.073 229.631 233.051 229.088 233.251C228.545 233.45 228.11 231.95 227.782 231.3C227.455 230.65 226.359 227.839 227.552 228.274Z" fill="#576032" stroke="#263238" stroke-linecap="round" stroke-linejoin="round"/>
<path d="M227.552 228.274C226.902 226.866 223.21 224.69 222.232 224.152C221.551 223.768 219.375 223.712 218.136 223.706C217.839 223.66 217.537 223.66 217.24 223.706C217.24 223.706 215.505 225.007 215.612 226.42C215.652 226.823 215.825 227.201 216.103 227.496C216.381 227.79 216.748 227.985 217.148 228.048H217.66C217.577 228.575 217.669 229.114 217.921 229.584C218.787 230.921 219.314 232.448 219.457 234.034C219.457 235.447 221.085 234.904 221.3 233.818C221.516 232.733 220.978 230.782 220.978 230.347C220.978 229.912 221.843 228.719 221.843 228.719C221.843 228.719 224.234 231.212 224.557 231.755C224.879 232.298 224.992 235.119 225.862 235.339C226.733 235.559 226.728 233.803 226.728 233.803C226.908 233.818 227.088 233.795 227.259 233.737C227.43 233.678 227.587 233.585 227.719 233.463C227.852 233.34 227.958 233.192 228.031 233.027C228.103 232.862 228.141 232.683 228.141 232.503C228.32 231.066 228.117 229.607 227.552 228.274Z" fill="#576032" stroke="#263238" stroke-linecap="round" stroke-linejoin="round"/>
<path d="M225.166 228.602C225.166 228.602 226.789 229.574 226.789 230.552C226.789 231.53 226.682 233.809 226.682 233.809" stroke="#263238" stroke-linecap="round" stroke-linejoin="round"/>
<path d="M208.019 263.136C208.019 264.672 208.884 264.872 205.521 266.935C202.157 268.999 197.057 267.585 192.065 266.5C187.073 265.415 181.103 264.544 178.825 264.544C176.547 264.544 171.104 265.389 169.056 265.389C167.008 265.389 163.634 265.174 164.069 264.089C164.504 263.003 170.034 261.262 170.469 260.832C170.904 260.402 170.797 259.527 171.882 257.898C172.128 257.452 172.525 257.108 173.002 256.93C173.48 256.751 174.005 256.75 174.483 256.926C176.4 258.682 178.782 259.849 181.344 260.289C185.44 260.94 192.951 261.262 195.885 261.262C198.819 261.262 202.505 262.568 202.828 262.568" fill="#696969"/>
<path d="M208.019 263.136C208.019 264.672 208.884 264.872 205.521 266.935C202.157 268.999 197.057 267.585 192.065 266.5C187.073 265.415 181.103 264.544 178.825 264.544C176.547 264.544 171.104 265.389 169.056 265.389C167.008 265.389 163.634 265.174 164.069 264.089C164.504 263.003 170.034 261.262 170.469 260.832C170.904 260.402 170.797 259.527 171.882 257.898C172.128 257.452 172.525 257.108 173.002 256.93C173.48 256.751 174.005 256.75 174.483 256.926C176.4 258.682 178.782 259.849 181.344 260.289C185.44 260.94 192.951 261.262 195.885 261.262C198.819 261.262 202.505 262.568 202.828 262.568" stroke="#263238" stroke-linecap="round" stroke-linejoin="round"/>
<path d="M181.344 260.289C178.789 259.846 176.415 258.678 174.504 256.926C174.025 256.75 173.5 256.751 173.023 256.93C172.546 257.108 172.148 257.452 171.903 257.898C170.817 259.527 170.925 260.397 170.49 260.832C170.054 261.267 164.52 263.003 164.09 264.089C163.66 265.174 167.008 265.389 169.056 265.389C171.104 265.389 176.547 264.519 178.825 264.519C180.009 264.552 181.19 264.649 182.363 264.81C182.363 264.713 182.322 264.616 182.296 264.519C181.979 263.167 182.89 261.401 183.397 260.561C182.644 260.479 181.943 260.387 181.344 260.289Z" fill="white" stroke="#263238" stroke-linecap="round" stroke-linejoin="round"/>
<path d="M174.483 256.926C174.005 256.75 173.48 256.751 173.002 256.93C172.525 257.108 172.128 257.452 171.882 257.898C170.797 259.527 170.904 260.397 170.469 260.832C170.034 261.267 164.499 263.003 164.069 264.089C163.91 264.473 164.238 264.744 164.812 264.938C166.086 263.571 170.136 262.435 171.268 261.61C172.399 260.786 171.555 260.505 172.748 258.876C173.045 258.496 173.415 258.179 173.836 257.943C174.257 257.708 174.721 257.558 175.2 257.504C174.729 257.166 174.483 256.926 174.483 256.926Z" stroke="#263238" stroke-linecap="round" stroke-linejoin="round"/>
<path d="M184.467 210.912C184.467 210.912 180.018 212.648 179.153 216.227C178.287 219.806 179.91 242.057 179.91 242.6C179.91 243.143 182.839 243.685 187.401 244.136C191.963 244.586 200.421 244.679 200.421 244.679C200.421 244.679 204.113 246.302 204.87 246.302C205.628 246.302 207.256 245.329 207.256 245.329C207.256 245.329 207.041 246.302 207.907 246.087C208.772 245.871 211.706 243.48 211.706 243.05C211.706 242.62 209.755 240.552 208.562 240.337C207.369 240.122 202.049 242.18 201.507 242.18C200.964 242.18 191.523 240.132 189.787 239.359C188.407 238.799 186.992 238.327 185.553 237.946L186.316 219.176" fill="white"/>
<path d="M184.467 210.912C184.467 210.912 180.018 212.648 179.153 216.227C178.287 219.806 179.91 242.057 179.91 242.6C179.91 243.143 182.839 243.685 187.401 244.136C191.963 244.586 200.421 244.679 200.421 244.679C200.421 244.679 204.113 246.302 204.87 246.302C205.628 246.302 207.256 245.329 207.256 245.329C207.256 245.329 207.041 246.302 207.907 246.087C208.772 245.871 211.706 243.48 211.706 243.05C211.706 242.62 209.755 240.552 208.562 240.337C207.369 240.122 202.049 242.18 201.507 242.18C200.964 242.18 191.523 240.132 189.787 239.359C188.407 238.799 186.992 238.327 185.553 237.946L186.316 219.176" stroke="#263238" stroke-linecap="round" stroke-linejoin="round"/>
<path d="M208.562 240.321C207.364 240.101 202.049 242.164 201.507 242.164C200.964 242.164 191.523 240.116 189.787 239.343C188.407 238.784 186.992 238.312 185.553 237.93L185.967 227.644L179.06 227.378C179.352 234.49 179.91 242.282 179.91 242.6C179.91 243.142 182.839 243.685 187.401 244.136C191.963 244.586 200.421 244.678 200.421 244.678C200.421 244.678 204.113 246.301 204.87 246.301C205.628 246.301 207.256 245.329 207.256 245.329C207.256 245.329 207.041 246.301 207.907 246.086C208.772 245.871 211.706 243.48 211.706 243.05C211.706 242.62 209.755 240.536 208.562 240.321Z" fill="white" stroke="#263238" stroke-linecap="round" stroke-linejoin="round"/>
<path d="M211.706 243.035C211.706 242.6 209.755 240.536 208.562 240.321C207.369 240.106 202.049 242.165 201.507 242.165C201.338 242.165 200.303 241.965 198.906 241.653C198.394 242.165 197.907 243.045 198.071 244.602L200.421 244.648C200.421 244.648 204.113 246.271 204.87 246.271C205.628 246.271 207.256 245.298 207.256 245.298C207.256 245.298 207.041 246.271 207.907 246.056C208.772 245.841 211.706 243.465 211.706 243.035Z" fill="#576032" stroke="#263238" stroke-linecap="round" stroke-linejoin="round"/>
<path d="M188.051 189.639C188.051 189.639 183.924 186.387 182.296 187.473C180.668 188.558 173.833 197.237 173.183 199.623C172.532 202.008 176.111 202.556 174.811 204.507C173.51 206.458 171.012 207.221 171.99 209.627C172.968 212.033 176.874 212.233 177.74 212.776C178.605 213.319 180.018 215.382 183.167 214.511C186.316 213.641 185.66 209.627 188.051 209.084C190.442 208.542 190.222 205.29 189.137 202.684C188.051 200.078 187.401 196.499 188.701 194.871C190.002 193.243 188.051 189.639 188.051 189.639Z" fill="#263238" stroke="#263238" stroke-linecap="round" stroke-linejoin="round"/>
<path d="M190.458 187.406C190.458 187.406 187.13 187.595 185.558 191.753C183.986 195.91 185.558 202.105 186.019 203.124C186.479 204.143 188.886 205.172 190.365 204.322C191.845 203.472 193.878 200.257 195.352 199.422C196.827 198.588 199.791 195.081 199.791 195.081L201.916 197.758C201.916 197.758 203.304 197.574 203.857 194.896C204.41 192.218 202.382 189.351 199.054 187.687C195.726 186.023 192.122 186.115 190.458 187.406Z" fill="#263238" stroke="#263238" stroke-linecap="round" stroke-linejoin="round"/>
<path d="M190.002 206.135C190.002 206.135 190.109 209.391 190.872 210.805C191.635 212.218 193.586 218.485 196.079 218.725C198.573 218.966 198.465 209.934 198.465 209.934C198.465 209.934 195.537 210.042 193.801 208.198C192.065 206.355 190.222 205.28 190.002 206.135Z" stroke="#263238" stroke-linecap="round" stroke-linejoin="round"/>
<path d="M200.16 192.397C200.16 192.397 196.279 196.929 193.228 198.869C190.176 200.81 188.794 201.086 188.794 201.086C188.794 201.086 189.992 200.902 189.162 201.736C188.333 202.571 188.138 202.76 187.683 202.013C187.227 201.265 185.373 200.533 185 202.381C184.841 203.153 184.959 203.956 185.334 204.649C185.708 205.342 186.315 205.88 187.048 206.17C187.836 206.502 188.712 206.567 189.541 206.355C189.541 206.355 189.818 209.498 193.514 211.347C197.211 213.195 200.636 210.609 201.65 208.669C202.664 206.728 202.3 197.948 202.111 196.468C201.921 194.988 200.16 192.397 200.16 192.397Z" fill="white" stroke="#263238" stroke-linecap="round" stroke-linejoin="round"/>
<path d="M199.228 201.143C199.228 201.143 199.008 202.878 199.336 202.986C199.663 203.093 200.872 203.528 200.421 204.184C199.971 204.839 199.336 205.269 198.578 204.942" stroke="#263238" stroke-linecap="round" stroke-linejoin="round"/>
<path d="M194.344 206.463C194.344 206.463 195.214 207.871 198.578 207.113" stroke="#263238" stroke-linecap="round" stroke-linejoin="round"/>
<path d="M196.3 201.849C196.3 202.361 196.054 202.771 195.757 202.771C195.46 202.771 195.214 202.356 195.214 201.849C195.214 201.342 195.455 200.928 195.757 200.928C196.059 200.928 196.3 201.337 196.3 201.849Z" fill="#263238"/>
<path d="M200.964 201.306C200.964 201.818 200.723 202.228 200.421 202.228C200.119 202.228 199.878 201.813 199.878 201.306C199.878 200.799 200.119 200.385 200.421 200.385C200.723 200.385 200.964 200.794 200.964 201.306Z" fill="#263238"/>
<path d="M194.144 200.16C194.44 199.796 194.825 199.515 195.262 199.345C195.699 199.174 196.173 199.12 196.637 199.187" stroke="#263238" stroke-linecap="round" stroke-linejoin="round"/>
<path d="M199.336 199.079C199.336 199.079 199.986 197.671 201.384 198.649" stroke="#263238" stroke-linecap="round" stroke-linejoin="round"/>
<path d="M235.442 237.192C235.442 237.192 224.966 240.556 222.13 241.59C219.293 242.625 209.975 242.753 209.33 243.787C208.685 244.821 204.046 250.668 203.14 254.027C202.234 257.386 203.437 266.484 204.302 267.052C207.779 269.351 216.923 268.645 220.794 268.496C227.875 268.235 234.73 270.79 238.714 263.581C240.004 261.251 238.14 253.095 237.884 250.382C237.628 247.668 236.717 243.142 236.589 242.492C236.461 241.841 237.382 237.71 235.442 237.192Z" fill="white" stroke="#263238" stroke-linecap="round" stroke-linejoin="round"/>
<path d="M222.34 250.336C227.88 248.38 232.605 242.656 234.075 241.693C235.544 240.731 236.348 238.621 236.348 238.621C234.028 240.185 231.508 241.431 228.858 242.328" stroke="#263238" stroke-linecap="round" stroke-linejoin="round"/>
<path d="M236.195 239.553C235.147 242.787 233.296 245.703 230.813 248.026" stroke="#263238" stroke-linecap="round" stroke-linejoin="round"/>
<path d="M211.419 244.115C211.419 244.115 213.047 244.929 218.587 244.929" stroke="#263238" stroke-linecap="round" stroke-linejoin="round"/>
<path d="M210.764 244.278C210.764 244.278 212.069 249.982 219.406 252.266" stroke="#263238" stroke-linecap="round" stroke-linejoin="round"/>
<path d="M209.463 246.239C210.576 248.201 212.071 249.92 213.861 251.293" stroke="#263238" stroke-linecap="round" stroke-linejoin="round"/>
<path d="M106.561 218.986C106.561 218.986 109.454 227.235 109.454 230.563C109.454 233.891 111.768 252.123 112.055 254.15C112.247 255.41 112.64 256.63 113.217 257.765C115.194 259.592 117.438 261.104 119.873 262.25C124.067 264.298 123.923 263.699 123.201 264.565C122.479 265.43 115.818 265.589 112.782 265.292C109.746 264.995 106.705 266.014 106.561 264.713C106.418 263.413 106.413 258.2 106.413 255.886C106.413 253.572 100.335 242.144 99.6134 238.519C98.8915 234.894 99.1782 229.262 99.1782 229.262L95.5635 220.558L106.561 218.986Z" fill="white" stroke="#263238" stroke-linecap="round" stroke-linejoin="round"/>
<path d="M112.224 259.214V261.262L106.449 260.151C106.449 262.107 106.5 264.017 106.582 264.759C106.725 266.06 109.761 265.046 112.803 265.338C115.844 265.63 122.495 265.481 123.222 264.611C123.949 263.74 124.087 264.324 119.894 262.297C117.46 261.149 115.216 259.636 113.238 257.812C113.238 257.812 112.224 257.909 112.224 259.214Z" fill="#263238" stroke="#263238" stroke-linecap="round" stroke-linejoin="round"/>
<path d="M94.6931 219.857C94.6931 219.857 95.113 228.924 93.6691 232.59C86.4346 251.109 86.1478 258.057 86.1478 258.057C86.1478 258.057 93.3926 263.551 94.985 264.16C96.5773 264.769 97.4426 265.025 96.4288 265.747C95.415 266.469 86.3014 266.326 84.7091 266.326C83.1168 266.326 79.2102 265.169 78.7802 264.447C78.3501 263.725 79.8042 257.934 79.8042 257.934C79.8042 257.934 80.5312 243.465 80.5312 240.137C80.5312 236.809 84.1459 230.301 84.1459 229.139C84.1459 227.977 83.424 219.304 83.424 219.304C83.424 219.304 92.0922 221.449 94.6931 219.857Z" fill="white" stroke="#263238" stroke-linecap="round" stroke-linejoin="round"/>
<path d="M96.4288 265.722C97.4528 265 96.5773 264.698 94.985 264.135C93.3926 263.572 86.1581 258.058 86.1581 258.058C86.1581 258.058 85.4362 258.344 85.4362 259.501C85.4688 260.111 85.3171 260.715 85.001 261.237C85.001 261.237 82.6867 260.807 79.9373 260.213C79.7069 260.167 79.497 260.121 79.2922 260.07C78.9184 261.795 78.5242 263.987 78.7802 264.412C79.2102 265.133 83.1168 266.291 84.7091 266.291C86.3014 266.291 95.4202 266.449 96.4288 265.722Z" fill="#263238" stroke="#263238" stroke-linecap="round" stroke-linejoin="round"/>
<path d="M106.705 176.301L112.055 184.114L134.194 180.934V185.128C134.194 185.128 112.224 191.205 111.333 190.483C110.442 189.761 103.085 186.285 103.085 186.285L106.705 176.301Z" fill="#B5B5B5" stroke="#263238" stroke-linecap="round" stroke-linejoin="round"/>
<path d="M86.88 166.03C86.88 166.03 85.2877 175.292 85.2877 179.05V192.362C85.2877 192.362 80.6797 199.745 79.9373 206.253C79.1949 212.76 79.0669 220 79.0669 220C79.0669 220 86.0147 223.041 91.657 222.606C95.0143 222.35 98.3501 221.864 101.641 221.152L109.597 219.273L103.663 192.362C103.663 192.362 106.561 184.682 106.991 184.263C107.421 183.843 109.039 178.631 108.44 174.709C107.841 170.787 105.691 162.702 101.206 160.531C96.7206 158.361 88.9075 160.967 86.88 166.03Z" fill="#5E5E5E" stroke="#263238" stroke-linecap="round" stroke-linejoin="round"/>
<path d="M93.4746 192.48C93.1609 194.841 92.1683 197.059 90.6176 198.865C88.0576 201.819 85.9482 202.388 85.9482 202.388C85.9482 202.388 84.7091 214.415 85.1853 219.104" stroke="#263238" stroke-linecap="round" stroke-linejoin="round"/>
<path d="M94.816 192.88C94.559 195.098 93.8442 197.239 92.7168 199.167C90.9043 202.121 87.0848 203.171 87.0848 203.171" stroke="#263238" stroke-linecap="round" stroke-linejoin="round"/>
<path d="M103.812 165.017C103.054 162.431 100.858 160.726 99.7824 160.025C96.439 159.201 92.0358 160.368 89.2096 162.851C89.1584 163.158 89.1226 163.435 89.0509 163.716C88.9075 164.295 86.7366 176.88 86.7366 176.88C86.7366 176.88 87.2486 176.982 88.0474 177.126C87.2486 181.196 88.1446 187.985 88.1446 187.985C88.1446 187.985 92.4198 189.363 95.7274 189.224C99.0349 189.086 102.895 187.176 102.895 187.176C102.895 186.014 103.863 180.182 104.319 177.499H104.534C104.534 177.499 104.82 168.488 103.812 165.017Z" fill="white" stroke="#263238" stroke-linecap="round" stroke-linejoin="round"/>
<path d="M97.7958 176.132C97.7958 176.132 92.6758 181.252 90.0749 182.056Z" fill="white"/>
<path d="M97.7958 176.132C97.7958 176.132 92.6758 181.252 90.0749 182.056" stroke="#263238" stroke-linecap="round" stroke-linejoin="round"/>
<path d="M97.7959 178.748C97.7959 178.748 94.8979 181.369 92.5581 183.3Z" fill="white"/>
<path d="M97.7959 178.748C97.7959 178.748 94.8979 181.369 92.5581 183.3" stroke="#263238" stroke-linecap="round" stroke-linejoin="round"/>
<path d="M108.947 216.324C106.387 217.691 103.529 218.406 100.627 218.408C100.627 218.408 96.2854 220.292 89.4861 220C85.8587 219.804 82.3267 218.766 79.1693 216.969C79.0925 218.813 79.0669 220 79.0669 220C79.0669 220 86.0147 223.042 91.657 222.606C95.0143 222.35 98.3501 221.864 101.641 221.152L109.597 219.273L108.947 216.324Z" fill="white" stroke="#263238" stroke-linecap="round" stroke-linejoin="round"/>
<path d="M100.771 221.45L101.062 205.675" stroke="#263238" stroke-linecap="round" stroke-linejoin="round"/>
<path d="M115.096 145.919V149.677C115.096 149.677 116.975 151.126 115.818 152.14C115.353 152.609 114.815 153 114.226 153.297C114.226 153.297 113.504 156.625 111.912 158.217C110.319 159.81 109.454 159.518 107.14 157.926C104.826 156.333 103.377 155.325 103.377 155.325C103.377 155.325 104.82 148.233 105.834 145.919C106.848 143.605 110.033 143.313 111.625 143.6C113.217 143.887 115.096 145.919 115.096 145.919Z" fill="white" stroke="#263238" stroke-linecap="round" stroke-linejoin="round"/>
<path d="M113.514 149.395C113.514 149.83 113.32 150.184 113.084 150.184C112.849 150.184 112.654 149.83 112.654 149.395C112.654 148.96 112.844 148.602 113.084 148.602C113.325 148.602 113.514 148.96 113.514 149.395Z" fill="#263238"/>
<path d="M112.147 147.527C112.147 147.527 112.941 146.236 114.016 147.312" stroke="#263238" stroke-linecap="round" stroke-linejoin="round"/>
<path d="M111.072 153.568C111.548 154.052 112.191 154.335 112.869 154.357" stroke="#263238" stroke-linecap="round" stroke-linejoin="round"/>
<path d="M108.64 144.7C108.64 144.7 105.599 151.991 105.752 155.488C105.906 158.985 109.848 169.015 108.184 172.359C106.52 175.702 103.008 178.144 100.448 174.181C97.888 170.218 96.9511 169.015 95.2819 171.442C93.6128 173.869 91.6365 178.282 87.8374 178.282C84.0384 178.282 79.456 173.27 81.7344 167.95C84.0128 162.631 89.184 160.352 92.3738 155.186C94.7158 151.515 96.3644 147.446 97.2378 143.18L108.937 143.635L108.64 144.7Z" fill="#263238" stroke="#263238" stroke-linecap="round" stroke-linejoin="round"/>
<path d="M96.9306 145.458H115.168C115.168 145.458 115.168 137.707 113.632 136.493C112.096 135.28 100.11 135.582 98.743 136.493C97.376 137.405 96.352 144.547 96.9306 145.458Z" fill="#576032" stroke="#263238" stroke-linecap="round" stroke-linejoin="round"/>
<path d="M109.341 145.376C109.341 145.376 113.596 147.045 117.395 147.045C121.194 147.045 123.171 145.376 123.171 145.376H109.341Z" fill="#576032" stroke="#263238" stroke-linecap="round" stroke-linejoin="round"/>
<path d="M139.258 180.193C139.258 180.193 140.85 179.906 140.85 181.063C140.85 182.22 138.971 182.087 137.379 181.498C135.786 180.909 137.957 180.5 139.258 180.193Z" fill="#B5B5B5" stroke="#263238" stroke-linecap="round" stroke-linejoin="round"/>
<path d="M139.549 181.657C139.549 181.657 141.142 181.365 141.142 182.527C141.142 183.689 139.258 183.551 137.67 182.957C136.083 182.363 138.249 181.948 139.549 181.657Z" fill="#B5B5B5" stroke="#263238" stroke-linecap="round" stroke-linejoin="round"/>
<path d="M139.841 183.106C139.841 183.106 141.428 182.814 141.428 183.971C141.428 185.128 139.549 184.995 137.957 184.407C136.365 183.818 138.536 183.393 139.841 183.106Z" fill="#B5B5B5" stroke="#263238" stroke-linecap="round" stroke-linejoin="round"/>
<path d="M139.555 184.586C139.555 184.586 141.147 184.294 141.147 185.451C141.147 186.608 139.263 186.475 137.676 185.886C136.088 185.297 138.254 184.872 139.555 184.586Z" fill="#B5B5B5" stroke="#263238" stroke-linecap="round" stroke-linejoin="round"/>
<path d="M132.602 181.656C132.602 181.656 123.631 201.332 123.631 202.648C123.631 203.964 123.631 207.42 124.502 209.448C125.372 211.475 130.579 215.233 132.893 215.668C135.208 216.104 145.048 213.789 146.205 213.498C147.363 213.206 150.404 205.106 150.255 203.514C150.107 201.921 146.349 195.834 145.77 194.835C145.192 193.837 140.42 187.309 139.841 186.131C139.263 184.954 137.522 181.938 137.522 181.938L132.602 181.656Z" fill="white" stroke="#263238" stroke-linecap="round" stroke-linejoin="round"/>
<path d="M134.194 185.128L133.037 193.668" stroke="#263238" stroke-linecap="round" stroke-linejoin="round"/>
<path d="M136.221 184.114V195.404" stroke="#263238" stroke-linecap="round" stroke-linejoin="round"/>
<path d="M137.67 182.957L141.72 195.69" stroke="#263238" stroke-linecap="round" stroke-linejoin="round"/>
<path d="M109.152 182.814C109.152 182.814 102.066 164.894 100.182 164.003C98.2976 163.113 92.6707 163.297 93.2493 169.953C93.8278 176.609 104.969 190.499 106.413 190.643C107.857 190.786 130.579 183.265 130.579 183.265C130.579 183.265 138.259 184.289 138.828 183.408C139.396 182.528 139.549 179.358 139.549 179.358C139.549 179.358 140.573 177.187 139.549 176.465C138.525 175.744 133.917 176.174 133.185 176.174C132.453 176.174 128.987 179.645 128.987 179.645L109.152 182.814Z" fill="white" stroke="#263238" stroke-linecap="round" stroke-linejoin="round"/>
<path d="M138.848 183.392C139.427 182.527 139.57 179.342 139.57 179.342C139.57 179.342 140.594 177.171 139.57 176.449C138.546 175.727 133.938 176.157 133.206 176.157C132.474 176.157 129.007 179.629 129.007 179.629L125.244 180.233L125.884 184.795C128.664 183.889 130.6 183.259 130.6 183.259C130.6 183.259 138.249 184.288 138.848 183.392Z" fill="#576032" stroke="#263238" stroke-linecap="round" stroke-linejoin="round"/>
<path d="M141.428 174.422L149.677 178.764L148.084 181.656L141.428 174.422Z" fill="white" stroke="#263238" stroke-linecap="round" stroke-linejoin="round"/>
<path d="M134.629 175.871L135.786 172.83C135.786 172.83 136.657 172.394 139.841 173.265C143.026 174.135 149.242 182.957 149.242 182.957C149.242 182.957 144.756 186.142 144.035 186.285C143.313 186.428 140.707 178.605 140.42 177.893C140.19 177.378 139.898 176.893 139.549 176.449L134.629 175.871Z" fill="white" stroke="#263238" stroke-linecap="round" stroke-linejoin="round"/>
<path d="M139.549 176.45L136.989 174.786" stroke="#263238" stroke-linecap="round" stroke-linejoin="round"/>
<path d="M156.62 208.414H120.124V265.604H156.62V208.414Z" fill="#576032" stroke="#263238" stroke-linecap="round" stroke-linejoin="round"/>
<path d="M156.532 227.808H120.211C119.953 227.808 119.706 227.705 119.523 227.523C119.341 227.341 119.238 227.093 119.238 226.835C119.238 226.577 119.341 226.33 119.523 226.147C119.706 225.965 119.953 225.862 120.211 225.862H156.532C156.79 225.862 157.038 225.965 157.22 226.147C157.403 226.33 157.505 226.577 157.505 226.835C157.505 227.093 157.403 227.341 157.22 227.523C157.038 227.705 156.79 227.808 156.532 227.808Z" fill="#576032" stroke="#263238" stroke-linecap="round" stroke-linejoin="round"/>
<path d="M156.532 209.274H120.211C119.953 209.274 119.706 209.171 119.523 208.989C119.341 208.806 119.238 208.559 119.238 208.301C119.238 208.043 119.341 207.795 119.523 207.613C119.706 207.431 119.953 207.328 120.211 207.328H156.532C156.79 207.328 157.038 207.431 157.22 207.613C157.403 207.795 157.505 208.043 157.505 208.301C157.505 208.559 157.403 208.806 157.22 208.989C157.038 209.171 156.79 209.274 156.532 209.274Z" fill="#576032" stroke="#263238" stroke-linecap="round" stroke-linejoin="round"/>
<path d="M156.532 247.182H120.211C119.953 247.182 119.706 247.079 119.523 246.897C119.341 246.715 119.238 246.467 119.238 246.209C119.238 245.951 119.341 245.704 119.523 245.521C119.706 245.339 119.953 245.236 120.211 245.236H156.532C156.79 245.236 157.038 245.339 157.22 245.521C157.403 245.704 157.505 245.951 157.505 246.209C157.505 246.467 157.403 246.715 157.22 246.897C157.038 247.079 156.79 247.182 156.532 247.182Z" fill="#576032" stroke="#263238" stroke-linecap="round" stroke-linejoin="round"/>
<defs>
<filter id="filter0_d_0_1" x="-187.527" y="-157.836" width="760.524" height="476.101" filterUnits="userSpaceOnUse" color-interpolation-filters="sRGB">
<feFlood flood-opacity="0" result="BackgroundImageFix"/>
<feColorMatrix in="SourceAlpha" type="matrix" values="0 0 0 0 0 0 0 0 0 0 0 0 0 0 0 0 0 0 127 0" result="hardAlpha"/>
<feOffset dy="2"/>
<feGaussianBlur stdDeviation="2"/>
<feComposite in2="hardAlpha" operator="out"/>
<feColorMatrix type="matrix" values="0 0 0 0 0 0 0 0 0 0 0 0 0 0 0 0 0 0 0.25 0"/>
<feBlend mode="normal" in2="BackgroundImageFix" result="effect1_dropShadow_0_1"/>
<feBlend mode="normal" in="SourceGraphic" in2="effect1_dropShadow_0_1" result="shape"/>
</filter>
</defs>
</svg>
